<svg xmlns="http://www.w3.org/2000/svg" viewBox="0 0 1400 175" width="1400" height="175" preserveAspectRatio="none" role="img" aria-label="curtain of fading squares">
<defs>
<linearGradient id="fade" x1="0" y1="0" x2="0" y2="1"><stop offset="0" stop-color="#ffffff" stop-opacity="1"/><stop offset="0.45" stop-color="#ffffff" stop-opacity="0.8"/><stop offset="1" stop-color="#ffffff" stop-opacity="0"/></linearGradient>
<mask id="m"><rect width="1400" height="175" fill="url(#fade)"/></mask>
</defs>
<style>
rect.a{animation:shiftA 7s ease-in-out infinite;}
rect.b{animation:shiftB 7s ease-in-out infinite;}
rect.c{animation:shiftC 7s ease-in-out infinite;}
@keyframes shiftA{
  0%,100% {fill:#050505; opacity:0.95;}
  30%     {fill:#3c3c3c; opacity:0.85;}
  55%     {fill:#8a8a8a; opacity:0.55;}
  78%     {fill:#2a2a2a; opacity:0.8;}
}
@keyframes shiftB{
  0%,100% {fill:#1f1f1f; opacity:0.9;}
  28%     {fill:#6f6f6f; opacity:0.6;}
  55%     {fill:#c9c9c9; opacity:0.35;}
  80%     {fill:#4a4a4a; opacity:0.75;}
}
@keyframes shiftC{
  0%,100% {fill:#101010; opacity:0.92;}
  32%     {fill:#555555; opacity:0.7;}
  58%     {fill:#a5a5a5; opacity:0.4;}
  82%     {fill:#333333; opacity:0.85;}
}
</style>
<g mask="url(#m)">
<rect class="c" x="1" y="1" width="33" height="33" style="animation-delay:-0.02s"/>
<rect class="a" x="36" y="1" width="33" height="33" style="animation-delay:0.03s"/>
<rect class="c" x="71" y="1" width="33" height="33" style="animation-delay:-0.01s"/>
<rect class="a" x="106" y="1" width="33" height="33" style="animation-delay:0.20s"/>
<rect class="b" x="141" y="1" width="33" height="33" style="animation-delay:0.05s"/>
<rect class="a" x="176" y="1" width="33" height="33" style="animation-delay:0.12s"/>
<rect class="c" x="211" y="1" width="33" height="33" style="animation-delay:0.33s"/>
<rect class="a" x="246" y="1" width="33" height="33" style="animation-delay:0.52s"/>
<rect class="a" x="281" y="1" width="33" height="33" style="animation-delay:0.44s"/>
<rect class="a" x="316" y="1" width="33" height="33" style="animation-delay:0.29s"/>
<rect class="a" x="351" y="1" width="33" height="33" style="animation-delay:0.64s"/>
<rect class="b" x="386" y="1" width="33" height="33" style="animation-delay:0.65s"/>
<rect class="a" x="421" y="1" width="33" height="33" style="animation-delay:0.58s"/>
<rect class="b" x="456" y="1" width="33" height="33" style="animation-delay:0.66s"/>
<rect class="a" x="491" y="1" width="33" height="33" style="animation-delay:0.70s"/>
<rect class="b" x="526" y="1" width="33" height="33" style="animation-delay:0.73s"/>
<rect class="a" x="561" y="1" width="33" height="33" style="animation-delay:0.77s"/>
<rect class="b" x="596" y="1" width="33" height="33" style="animation-delay:0.92s"/>
<rect class="b" x="631" y="1" width="33" height="33" style="animation-delay:0.99s"/>
<rect class="a" x="666" y="1" width="33" height="33" style="animation-delay:0.78s"/>
<rect class="b" x="701" y="1" width="33" height="33" style="animation-delay:0.96s"/>
<rect class="a" x="736" y="1" width="33" height="33" style="animation-delay:1.01s"/>
<rect class="a" x="771" y="1" width="33" height="33" style="animation-delay:1.23s"/>
<rect class="a" x="806" y="1" width="33" height="33" style="animation-delay:1.05s"/>
<rect class="c" x="841" y="1" width="33" height="33" style="animation-delay:1.19s"/>
<rect class="a" x="876" y="1" width="33" height="33" style="animation-delay:1.22s"/>
<rect class="b" x="911" y="1" width="33" height="33" style="animation-delay:1.40s"/>
<rect class="b" x="946" y="1" width="33" height="33" style="animation-delay:1.29s"/>
<rect class="c" x="981" y="1" width="33" height="33" style="animation-delay:1.34s"/>
<rect class="a" x="1016" y="1" width="33" height="33" style="animation-delay:1.54s"/>
<rect class="a" x="1051" y="1" width="33" height="33" style="animation-delay:1.37s"/>
<rect class="c" x="1086" y="1" width="33" height="33" style="animation-delay:1.37s"/>
<rect class="a" x="1121" y="1" width="33" height="33" style="animation-delay:1.71s"/>
<rect class="a" x="1156" y="1" width="33" height="33" style="animation-delay:1.72s"/>
<rect class="a" x="1191" y="1" width="33" height="33" style="animation-delay:1.68s"/>
<rect class="a" x="1226" y="1" width="33" height="33" style="animation-delay:1.92s"/>
<rect class="c" x="1261" y="1" width="33" height="33" style="animation-delay:1.77s"/>
<rect class="c" x="1296" y="1" width="33" height="33" style="animation-delay:1.71s"/>
<rect class="a" x="1331" y="1" width="33" height="33" style="animation-delay:2.08s"/>
<rect class="b" x="1366" y="1" width="33" height="33" style="animation-delay:1.87s"/>
<rect class="a" x="1" y="36" width="33" height="33" style="animation-delay:0.73s"/>
<rect class="c" x="36" y="36" width="33" height="33" style="animation-delay:0.50s"/>
<rect class="a" x="71" y="36" width="33" height="33" style="animation-delay:0.83s"/>
<rect class="a" x="106" y="36" width="33" height="33" style="animation-delay:0.54s"/>
<rect class="b" x="141" y="36" width="33" height="33" style="animation-delay:0.65s"/>
<rect class="b" x="176" y="36" width="33" height="33" style="animation-delay:0.62s"/>
<rect class="c" x="211" y="36" width="33" height="33" style="animation-delay:0.97s"/>
<rect class="a" x="246" y="36" width="33" height="33" style="animation-delay:0.75s"/>
<rect class="a" x="281" y="36" width="33" height="33" style="animation-delay:0.85s"/>
<rect class="b" x="316" y="36" width="33" height="33" style="animation-delay:0.83s"/>
<rect class="c" x="351" y="36" width="33" height="33" style="animation-delay:1.00s"/>
<rect class="c" x="386" y="36" width="33" height="33" style="animation-delay:0.97s"/>
<rect class="a" x="421" y="36" width="33" height="33" style="animation-delay:1.27s"/>
<rect class="a" x="456" y="36" width="33" height="33" style="animation-delay:1.33s"/>
<rect class="b" x="491" y="36" width="33" height="33" style="animation-delay:1.30s"/>
<rect class="a" x="526" y="36" width="33" height="33" style="animation-delay:1.45s"/>
<rect class="a" x="561" y="36" width="33" height="33" style="animation-delay:1.43s"/>
<rect class="a" x="596" y="36" width="33" height="33" style="animation-delay:1.49s"/>
<rect class="c" x="631" y="36" width="33" height="33" style="animation-delay:1.52s"/>
<rect class="a" x="666" y="36" width="33" height="33" style="animation-delay:1.64s"/>
<rect class="a" x="701" y="36" width="33" height="33" style="animation-delay:1.52s"/>
<rect class="b" x="736" y="36" width="33" height="33" style="animation-delay:1.46s"/>
<rect class="c" x="771" y="36" width="33" height="33" style="animation-delay:1.56s"/>
<rect class="c" x="806" y="36" width="33" height="33" style="animation-delay:1.61s"/>
<rect class="a" x="841" y="36" width="33" height="33" style="animation-delay:1.68s"/>
<rect class="a" x="876" y="36" width="33" height="33" style="animation-delay:1.95s"/>
<rect class="c" x="911" y="36" width="33" height="33" style="animation-delay:1.72s"/>
<rect class="a" x="946" y="36" width="33" height="33" style="animation-delay:1.92s"/>
<rect class="a" x="981" y="36" width="33" height="33" style="animation-delay:1.87s"/>
<rect class="a" x="1016" y="36" width="33" height="33" style="animation-delay:2.09s"/>
<rect class="c" x="1051" y="36" width="33" height="33" style="animation-delay:1.97s"/>
<rect class="a" x="1086" y="36" width="33" height="33" style="animation-delay:2.01s"/>
<rect class="b" x="1121" y="36" width="33" height="33" style="animation-delay:2.03s"/>
<rect class="a" x="1156" y="36" width="33" height="33" style="animation-delay:2.21s"/>
<rect class="a" x="1191" y="36" width="33" height="33" style="animation-delay:2.10s"/>
<rect class="b" x="1226" y="36" width="33" height="33" style="animation-delay:2.44s"/>
<rect class="a" x="1261" y="36" width="33" height="33" style="animation-delay:2.41s"/>
<rect class="a" x="1296" y="36" width="33" height="33" style="animation-delay:2.43s"/>
<rect class="b" x="1331" y="36" width="33" height="33" style="animation-delay:2.44s"/>
<rect class="a" x="1366" y="36" width="33" height="33" style="animation-delay:2.57s"/>
<rect class="a" x="1" y="71" width="33" height="33" style="animation-delay:0.93s"/>
<rect class="b" x="36" y="71" width="33" height="33" style="animation-delay:1.14s"/>
<rect class="a" x="71" y="71" width="33" height="33" style="animation-delay:1.13s"/>
<rect class="b" x="106" y="71" width="33" height="33" style="animation-delay:1.10s"/>
<rect class="a" x="141" y="71" width="33" height="33" style="animation-delay:1.39s"/>
<rect class="b" x="176" y="71" width="33" height="33" style="animation-delay:1.46s"/>
<rect class="c" x="211" y="71" width="33" height="33" style="animation-delay:1.35s"/>
<rect class="c" x="246" y="71" width="33" height="33" style="animation-delay:1.59s"/>
<rect class="a" x="281" y="71" width="33" height="33" style="animation-delay:1.66s"/>
<rect class="a" x="316" y="71" width="33" height="33" style="animation-delay:1.68s"/>
<rect class="c" x="351" y="71" width="33" height="33" style="animation-delay:1.64s"/>
<rect class="a" x="386" y="71" width="33" height="33" style="animation-delay:1.61s"/>
<rect class="a" x="421" y="71" width="33" height="33" style="animation-delay:1.74s"/>
<rect class="a" x="456" y="71" width="33" height="33" style="animation-delay:1.60s"/>
<rect class="c" x="491" y="71" width="33" height="33" style="animation-delay:1.98s"/>
<rect class="c" x="526" y="71" width="33" height="33" style="animation-delay:1.93s"/>
<rect class="c" x="561" y="71" width="33" height="33" style="animation-delay:2.06s"/>
<rect class="a" x="596" y="71" width="33" height="33" style="animation-delay:1.93s"/>
<rect class="a" x="631" y="71" width="33" height="33" style="animation-delay:2.01s"/>
<rect class="a" x="666" y="71" width="33" height="33" style="animation-delay:1.98s"/>
<rect class="a" x="701" y="71" width="33" height="33" style="animation-delay:2.09s"/>
<rect class="a" x="736" y="71" width="33" height="33" style="animation-delay:2.31s"/>
<rect class="c" x="771" y="71" width="33" height="33" style="animation-delay:2.20s"/>
<rect class="a" x="806" y="71" width="33" height="33" style="animation-delay:2.16s"/>
<rect class="a" x="841" y="71" width="33" height="33" style="animation-delay:2.25s"/>
<rect class="a" x="876" y="71" width="33" height="33" style="animation-delay:2.41s"/>
<rect class="b" x="911" y="71" width="33" height="33" style="animation-delay:2.41s"/>
<rect class="c" x="946" y="71" width="33" height="33" style="animation-delay:2.51s"/>
<rect class="a" x="981" y="71" width="33" height="33" style="animation-delay:2.50s"/>
<rect class="b" x="1016" y="71" width="33" height="33" style="animation-delay:2.49s"/>
<rect class="c" x="1051" y="71" width="33" height="33" style="animation-delay:2.49s"/>
<rect class="a" x="1086" y="71" width="33" height="33" style="animation-delay:2.76s"/>
<rect class="c" x="1121" y="71" width="33" height="33" style="animation-delay:2.84s"/>
<rect class="b" x="1156" y="71" width="33" height="33" style="animation-delay:2.65s"/>
<rect class="a" x="1191" y="71" width="33" height="33" style="animation-delay:2.70s"/>
<rect class="a" x="1226" y="71" width="33" height="33" style="animation-delay:2.85s"/>
<rect class="b" x="1261" y="71" width="33" height="33" style="animation-delay:2.98s"/>
<rect class="a" x="1296" y="71" width="33" height="33" style="animation-delay:3.07s"/>
<rect class="b" x="1331" y="71" width="33" height="33" style="animation-delay:2.98s"/>
<rect class="c" x="1366" y="71" width="33" height="33" style="animation-delay:3.20s"/>
<rect class="c" x="1" y="106" width="33" height="33" style="animation-delay:1.61s"/>
<rect class="c" x="36" y="106" width="33" height="33" style="animation-delay:1.76s"/>
<rect class="a" x="71" y="106" width="33" height="33" style="animation-delay:1.69s"/>
<rect class="a" x="106" y="106" width="33" height="33" style="animation-delay:1.72s"/>
<rect class="b" x="141" y="106" width="33" height="33" style="animation-delay:1.91s"/>
<rect class="b" x="176" y="106" width="33" height="33" style="animation-delay:1.93s"/>
<rect class="a" x="211" y="106" width="33" height="33" style="animation-delay:2.00s"/>
<rect class="c" x="246" y="106" width="33" height="33" style="animation-delay:2.05s"/>
<rect class="a" x="281" y="106" width="33" height="33" style="animation-delay:2.03s"/>
<rect class="b" x="316" y="106" width="33" height="33" style="animation-delay:2.20s"/>
<rect class="a" x="351" y="106" width="33" height="33" style="animation-delay:2.06s"/>
<rect class="a" x="386" y="106" width="33" height="33" style="animation-delay:2.31s"/>
<rect class="b" x="421" y="106" width="33" height="33" style="animation-delay:2.23s"/>
<rect class="a" x="456" y="106" width="33" height="33" style="animation-delay:2.47s"/>
<rect class="c" x="491" y="106" width="33" height="33" style="animation-delay:2.24s"/>
<rect class="a" x="526" y="106" width="33" height="33" style="animation-delay:2.31s"/>
<rect class="a" x="561" y="106" width="33" height="33" style="animation-delay:2.54s"/>
<rect class="b" x="596" y="106" width="33" height="33" style="animation-delay:2.38s"/>
<rect class="a" x="631" y="106" width="33" height="33" style="animation-delay:2.65s"/>
<rect class="a" x="666" y="106" width="33" height="33" style="animation-delay:2.56s"/>
<rect class="c" x="701" y="106" width="33" height="33" style="animation-delay:2.50s"/>
<rect class="c" x="736" y="106" width="33" height="33" style="animation-delay:2.57s"/>
<rect class="a" x="771" y="106" width="33" height="33" style="animation-delay:2.64s"/>
<rect class="b" x="806" y="106" width="33" height="33" style="animation-delay:2.76s"/>
<rect class="a" x="841" y="106" width="33" height="33" style="animation-delay:2.84s"/>
<rect class="a" x="876" y="106" width="33" height="33" style="animation-delay:2.76s"/>
<rect class="c" x="911" y="106" width="33" height="33" style="animation-delay:2.85s"/>
<rect class="b" x="946" y="106" width="33" height="33" style="animation-delay:3.17s"/>
<rect class="b" x="981" y="106" width="33" height="33" style="animation-delay:3.06s"/>
<rect class="a" x="1016" y="106" width="33" height="33" style="animation-delay:3.01s"/>
<rect class="a" x="1051" y="106" width="33" height="33" style="animation-delay:3.10s"/>
<rect class="b" x="1086" y="106" width="33" height="33" style="animation-delay:3.03s"/>
<rect class="b" x="1121" y="106" width="33" height="33" style="animation-delay:3.27s"/>
<rect class="a" x="1156" y="106" width="33" height="33" style="animation-delay:3.30s"/>
<rect class="a" x="1191" y="106" width="33" height="33" style="animation-delay:3.25s"/>
<rect class="a" x="1226" y="106" width="33" height="33" style="animation-delay:3.37s"/>
<rect class="b" x="1261" y="106" width="33" height="33" style="animation-delay:3.33s"/>
<rect class="a" x="1296" y="106" width="33" height="33" style="animation-delay:3.57s"/>
<rect class="c" x="1331" y="106" width="33" height="33" style="animation-delay:3.54s"/>
<rect class="c" x="1366" y="106" width="33" height="33" style="animation-delay:3.76s"/>
<rect class="a" x="1" y="141" width="33" height="33" style="animation-delay:2.23s"/>
<rect class="c" x="36" y="141" width="33" height="33" style="animation-delay:2.34s"/>
<rect class="b" x="71" y="141" width="33" height="33" style="animation-delay:2.31s"/>
<rect class="a" x="106" y="141" width="33" height="33" style="animation-delay:2.47s"/>
<rect class="b" x="141" y="141" width="33" height="33" style="animation-delay:2.41s"/>
<rect class="c" x="176" y="141" width="33" height="33" style="animation-delay:2.38s"/>
<rect class="a" x="211" y="141" width="33" height="33" style="animation-delay:2.66s"/>
<rect class="a" x="246" y="141" width="33" height="33" style="animation-delay:2.48s"/>
<rect class="b" x="281" y="141" width="33" height="33" style="animation-delay:2.77s"/>
<rect class="a" x="316" y="141" width="33" height="33" style="animation-delay:2.68s"/>
<rect class="a" x="351" y="141" width="33" height="33" style="animation-delay:2.67s"/>
<rect class="c" x="386" y="141" width="33" height="33" style="animation-delay:2.75s"/>
<rect class="a" x="421" y="141" width="33" height="33" style="animation-delay:2.63s"/>
<rect class="c" x="456" y="141" width="33" height="33" style="animation-delay:2.86s"/>
<rect class="a" x="491" y="141" width="33" height="33" style="animation-delay:2.92s"/>
<rect class="a" x="526" y="141" width="33" height="33" style="animation-delay:2.95s"/>
<rect class="c" x="561" y="141" width="33" height="33" style="animation-delay:2.84s"/>
<rect class="c" x="596" y="141" width="33" height="33" style="animation-delay:3.02s"/>
<rect class="c" x="631" y="141" width="33" height="33" style="animation-delay:3.02s"/>
<rect class="b" x="666" y="141" width="33" height="33" style="animation-delay:3.15s"/>
<rect class="c" x="701" y="141" width="33" height="33" style="animation-delay:3.18s"/>
<rect class="a" x="736" y="141" width="33" height="33" style="animation-delay:3.26s"/>
<rect class="a" x="771" y="141" width="33" height="33" style="animation-delay:3.19s"/>
<rect class="a" x="806" y="141" width="33" height="33" style="animation-delay:3.50s"/>
<rect class="a" x="841" y="141" width="33" height="33" style="animation-delay:3.47s"/>
<rect class="a" x="876" y="141" width="33" height="33" style="animation-delay:3.28s"/>
<rect class="b" x="911" y="141" width="33" height="33" style="animation-delay:3.40s"/>
<rect class="b" x="946" y="141" width="33" height="33" style="animation-delay:3.49s"/>
<rect class="c" x="981" y="141" width="33" height="33" style="animation-delay:3.51s"/>
<rect class="a" x="1016" y="141" width="33" height="33" style="animation-delay:3.51s"/>
<rect class="b" x="1051" y="141" width="33" height="33" style="animation-delay:3.83s"/>
<rect class="c" x="1086" y="141" width="33" height="33" style="animation-delay:3.83s"/>
<rect class="c" x="1121" y="141" width="33" height="33" style="animation-delay:3.63s"/>
<rect class="a" x="1156" y="141" width="33" height="33" style="animation-delay:3.97s"/>
<rect class="a" x="1191" y="141" width="33" height="33" style="animation-delay:3.91s"/>
<rect class="a" x="1226" y="141" width="33" height="33" style="animation-delay:3.96s"/>
<rect class="b" x="1261" y="141" width="33" height="33" style="animation-delay:3.90s"/>
<rect class="b" x="1296" y="141" width="33" height="33" style="animation-delay:4.19s"/>
<rect class="a" x="1331" y="141" width="33" height="33" style="animation-delay:4.14s"/>
<rect class="a" x="1366" y="141" width="33" height="33" style="animation-delay:4.05s"/>
</g>
</svg>